# xmcd
#
# Track frame offsets:
#	150
#	10812
#	23269
#	31801
#	46237
#	59371
#	76989
#	86921
#	97001
#	102966
#	110523
#	123859
#	132791
#	143852
#	157569
#	166528
#
# Disc length: 2382 seconds
#
# Revision: 2
# Processed by: cddbd v1.5.2PL0 Copyright (c) Steve Scherf et al.
# Submitted via: audiograbber 1.83.01
#
DISCID=b2094c10
DTITLE=Various Artist - Country [CD3]
DYEAR=2004
DGENRE=Country
TTITLE0=Don Williams - Spend Some Time With Me
TTITLE1=Jerry Wallace - In The Misty Moonlight
TTITLE2=Porter Wagoner - I See Love
TTITLE3=Ernest Tubb - It's Been So Long Darling
TTITLE4=Billie Jo Spears - Fever
TTITLE5=Kenny Rogers and The First Edition - Something's Burning
TTITLE6=Jeannie C Riley - He Made A Woman Out of Me
TTITLE7=Rita Remington - Love Me 'Til The Mornin' Comes
TTITLE8=Jim Reeves - Have I Told You Lately That I Love You
TTITLE9=Dolly Parton - Puppy Love
TTITLE10=Patti Page - Would I Love You (Love You, Love You)
TTITLE11=Willie Nelson - Waiting Time
TTITLE12=Anne Murray - The Last Thing On My Mind
TTITLE13=Jerry Lee Lewis (with Linda Gail Lewis) - Seasons Of My Heart
TTITLE14=Johnny Cash - Remember Me (I'm The One Who Loves You)
TTITLE15=Eddy Arnold - I'll Hold You In My Hert
EXTD=
EXTT0=
EXTT1=
EXTT2=
EXTT3=
EXTT4=
EXTT5=
EXTT6=
EXTT7=
EXTT8=
EXTT9=
EXTT10=
EXTT11=
EXTT12=
EXTT13=
EXTT14=
EXTT15=
PLAYORDER=
